{
	"asset":{
		"generator":"Khronos glTF Blender I/O v3.6.28",
		"version":"2.0"
	},
	"scene":0,
	"scenes":[
		{
			"name":"Scene",
			"nodes":[
				0,
				1,
				2
			]
		}
	],
	"nodes":[
		{
			"mesh":0,
			"name":"wire fence.001",
			"translation":[
				-4.4792962074279785,
				3.5036988258361816,
				-0.18081296980381012
			]
		},
		{
			"mesh":1,
			"name":"wire fence.002",
			"translation":[
				0.03227756917476654,
				4.275599956512451,
				-0.1488005369901657
			]
		},
		{
			"mesh":2,
			"name":"wire fence",
			"translation":[
				4.551220417022705,
				3.5036988258361816,
				-0.18081055581569672
			]
		}
	],
	"materials":[
		{
			"alphaMode":"BLEND",
			"doubleSided":true,
			"name":"Material.006",
			"pbrMetallicRoughness":{}
		}
	],
	"meshes":[
		{
			"name":"Plane.043",
			"primitives":[
				{
					"attributes":{
						"POSITION":0,
						"NORMAL":1,
						"TEXCOORD_0":2
					},
					"indices":3,
					"material":0
				}
			]
		},
		{
			"name":"Plane.003",
			"primitives":[
				{
					"attributes":{
						"POSITION":4,
						"NORMAL":5,
						"TEXCOORD_0":6
					},
					"indices":7,
					"material":0
				}
			]
		},
		{
			"name":"Plane.001",
			"primitives":[
				{
					"attributes":{
						"POSITION":8,
						"NORMAL":9,
						"TEXCOORD_0":10
					},
					"indices":3,
					"material":0
				}
			]
		}
	],
	"accessors":[
		{
			"bufferView":0,
			"componentType":5126,
			"count":138,
			"max":[
				2.2917351722717285,
				1.2746739387512207,
				0.27904921770095825
			],
			"min":[
				-2.2841477394104004,
				-3.7488276958465576,
				-0.20560668408870697
			],
			"type":"VEC3"
		},
		{
			"bufferView":1,
			"componentType":5126,
			"count":138,
			"type":"VEC3"
		},
		{
			"bufferView":2,
			"componentType":5126,
			"count":138,
			"type":"VEC2"
		},
		{
			"bufferView":3,
			"componentType":5123,
			"count":444,
			"type":"SCALAR"
		},
		{
			"bufferView":4,
			"componentType":5126,
			"count":60,
			"max":[
				2.22810435295105,
				0.5027728080749512,
				0.24152915179729462
			],
			"min":[
				-2.2371490001678467,
				-4.520729064941406,
				-0.21728642284870148
			],
			"type":"VEC3"
		},
		{
			"bufferView":5,
			"componentType":5126,
			"count":60,
			"type":"VEC3"
		},
		{
			"bufferView":6,
			"componentType":5126,
			"count":60,
			"type":"VEC2"
		},
		{
			"bufferView":7,
			"componentType":5123,
			"count":156,
			"type":"SCALAR"
		},
		{
			"bufferView":8,
			"componentType":5126,
			"count":138,
			"max":[
				2.2869062423706055,
				1.2746739387512207,
				0.2790493965148926
			],
			"min":[
				-2.304513931274414,
				-3.7488276958465576,
				-0.2056058794260025
			],
			"type":"VEC3"
		},
		{
			"bufferView":9,
			"componentType":5126,
			"count":138,
			"type":"VEC3"
		},
		{
			"bufferView":10,
			"componentType":5126,
			"count":138,
			"type":"VEC2"
		}
	],
	"bufferViews":[
		{
			"buffer":0,
			"byteLength":1656,
			"byteOffset":0,
			"target":34962
		},
		{
			"buffer":0,
			"byteLength":1656,
			"byteOffset":1656,
			"target":34962
		},
		{
			"buffer":0,
			"byteLength":1104,
			"byteOffset":3312,
			"target":34962
		},
		{
			"buffer":0,
			"byteLength":888,
			"byteOffset":4416,
			"target":34963
		},
		{
			"buffer":0,
			"byteLength":720,
			"byteOffset":5304,
			"target":34962
		},
		{
			"buffer":0,
			"byteLength":720,
			"byteOffset":6024,
			"target":34962
		},
		{
			"buffer":0,
			"byteLength":480,
			"byteOffset":6744,
			"target":34962
		},
		{
			"buffer":0,
			"byteLength":312,
			"byteOffset":7224,
			"target":34963
		},
		{
			"buffer":0,
			"byteLength":1656,
			"byteOffset":7536,
			"target":34962
		},
		{
			"buffer":0,
			"byteLength":1656,
			"byteOffset":9192,
			"target":34962
		},
		{
			"buffer":0,
			"byteLength":1104,
			"byteOffset":10848,
			"target":34962
		}
	],
	"buffers":[
		{
			"byteLength":11952,
			"uri":"data:application/octet-stream;base64,"
		}
	]
}
