{
	"asset":{
		"generator":"Khronos glTF Blender I/O v3.6.28",
		"version":"2.0"
	},
	"scene":0,
	"scenes":[
		{
			"name":"Scene",
			"nodes":[
				0,
				1,
				2,
				3,
				4
			]
		}
	],
	"nodes":[
		{
			"mesh":0,
			"name":"Cube.001",
			"scale":[
				1.0080453157424927,
				1.0080453157424927,
				1.0080453157424927
			]
		},
		{
			"mesh":1,
			"name":"Cylinder",
			"scale":[
				0.10767919570207596,
				0.36504173278808594,
				0.10251839458942413
			],
			"translation":[
				-0.5938240885734558,
				1.6371585130691528,
				-0.00025509053375571966
			]
		},
		{
			"mesh":2,
			"name":"Cube",
			"rotation":[
				1,
				0,
				0,
				0
			],
			"scale":[
				-0.19812019169330597,
				-0.582134485244751,
				-0.04007119685411453
			],
			"translation":[
				-0.0008691318798810244,
				-0.42936721444129944,
				-1.0051807165145874
			]
		},
		{
			"mesh":3,
			"name":"Cylinder.001",
			"rotation":[
				-0.7072416543960571,
				0,
				0,
				0.7069718837738037
			],
			"scale":[
				0.023740900680422783,
				0.03966064006090164,
				0.022552218288183212
			],
			"translation":[
				-0.13167224824428558,
				-0.4490314722061157,
				-1.04757559299469
			]
		},
		{
			"mesh":4,
			"name":"Sphere",
			"scale":[
				0.0410846471786499,
				0.0410846471786499,
				0.0410846471786499
			],
			"translation":[
				-0.13244925439357758,
				-0.44904083013534546,
				-1.0887335538864136
			]
		}
	],
	"animations":[
		{
			"channels":[
				{
					"sampler":0,
					"target":{
						"node":1,
						"path":"translation"
					}
				}
			],
			"name":"CylinderAction",
			"samplers":[
				{
					"input":20,
					"interpolation":"LINEAR",
					"output":21
				}
			]
		}
	],
	"materials":[
		{
			"doubleSided":true,
			"name":"Material.002",
			"pbrMetallicRoughness":{
				"baseColorFactor":[
					0.5000001192092896,
					0.05507712438702583,
					0,
					1
				],
				"metallicFactor":0,
				"roughnessFactor":0.5
			}
		},
		{
			"doubleSided":true,
			"name":"Material.003",
			"pbrMetallicRoughness":{
				"baseColorFactor":[
					0.2500000596046448,
					0.018650535494089127,
					0,
					1
				],
				"metallicFactor":0,
				"roughnessFactor":0.5
			}
		},
		{
			"doubleSided":true,
			"name":"Material.004",
			"pbrMetallicRoughness":{
				"baseColorFactor":[
					0.15057480335235596,
					0.01345222257077694,
					0,
					1
				],
				"metallicFactor":0,
				"roughnessFactor":0.5
			}
		},
		{
			"doubleSided":true,
			"name":"Material.005",
			"pbrMetallicRoughness":{
				"baseColorFactor":[
					0.2425287961959839,
					0.04763078689575195,
					0,
					1
				],
				"metallicFactor":0,
				"roughnessFactor":0.5
			}
		},
		{
			"doubleSided":true,
			"name":"Material.001",
			"pbrMetallicRoughness":{
				"baseColorFactor":[
					0.24827593564987183,
					0.03646411374211311,
					0,
					1
				],
				"metallicFactor":0,
				"roughnessFactor":0.5
			}
		}
	],
	"meshes":[
		{
			"name":"Cube.001",
			"primitives":[
				{
					"attributes":{
						"POSITION":0,
						"NORMAL":1,
						"TEXCOORD_0":2
					},
					"indices":3,
					"material":0
				}
			]
		},
		{
			"name":"Cylinder",
			"primitives":[
				{
					"attributes":{
						"POSITION":4,
						"NORMAL":5,
						"TEXCOORD_0":6
					},
					"indices":7,
					"material":1
				}
			]
		},
		{
			"name":"Cube.003",
			"primitives":[
				{
					"attributes":{
						"POSITION":8,
						"NORMAL":9,
						"TEXCOORD_0":10
					},
					"indices":11,
					"material":2
				}
			]
		},
		{
			"name":"Cylinder.001",
			"primitives":[
				{
					"attributes":{
						"POSITION":12,
						"NORMAL":13,
						"TEXCOORD_0":14
					},
					"indices":15,
					"material":3
				}
			]
		},
		{
			"name":"Sphere",
			"primitives":[
				{
					"attributes":{
						"POSITION":16,
						"NORMAL":17,
						"TEXCOORD_0":18
					},
					"indices":19,
					"material":4
				}
			]
		}
	],
	"accessors":[
		{
			"bufferView":0,
			"componentType":5126,
			"count":307,
			"max":[
				1.0481828451156616,
				1.9233582019805908,
				1.0499999523162842
			],
			"min":[
				-1.0499999523162842,
				-1.0353792905807495,
				-1.0499999523162842
			],
			"type":"VEC3"
		},
		{
			"bufferView":1,
			"componentType":5126,
			"count":307,
			"type":"VEC3"
		},
		{
			"bufferView":2,
			"componentType":5126,
			"count":307,
			"type":"VEC2"
		},
		{
			"bufferView":3,
			"componentType":5123,
			"count":504,
			"type":"SCALAR"
		},
		{
			"bufferView":4,
			"componentType":5126,
			"count":1748,
			"max":[
				1,
				1,
				1
			],
			"min":[
				-1,
				-1,
				-1
			],
			"type":"VEC3"
		},
		{
			"bufferView":5,
			"componentType":5126,
			"count":1748,
			"type":"VEC3"
		},
		{
			"bufferView":6,
			"componentType":5126,
			"count":1748,
			"type":"VEC2"
		},
		{
			"bufferView":7,
			"componentType":5123,
			"count":3840,
			"type":"SCALAR"
		},
		{
			"bufferView":8,
			"componentType":5126,
			"count":24,
			"max":[
				1,
				1,
				1
			],
			"min":[
				-1,
				-1,
				-1
			],
			"type":"VEC3"
		},
		{
			"bufferView":9,
			"componentType":5126,
			"count":24,
			"type":"VEC3"
		},
		{
			"bufferView":10,
			"componentType":5126,
			"count":24,
			"type":"VEC2"
		},
		{
			"bufferView":11,
			"componentType":5123,
			"count":36,
			"type":"SCALAR"
		},
		{
			"bufferView":12,
			"componentType":5126,
			"count":192,
			"max":[
				1,
				1,
				1
			],
			"min":[
				-1,
				-1,
				-1
			],
			"type":"VEC3"
		},
		{
			"bufferView":13,
			"componentType":5126,
			"count":192,
			"type":"VEC3"
		},
		{
			"bufferView":14,
			"componentType":5126,
			"count":192,
			"type":"VEC2"
		},
		{
			"bufferView":15,
			"componentType":5123,
			"count":372,
			"type":"SCALAR"
		},
		{
			"bufferView":16,
			"componentType":5126,
			"count":1984,
			"max":[
				0.9999997019767761,
				1,
				0.9999993443489075
			],
			"min":[
				-0.9999990463256836,
				-1,
				-1
			],
			"type":"VEC3"
		},
		{
			"bufferView":17,
			"componentType":5126,
			"count":1984,
			"type":"VEC3"
		},
		{
			"bufferView":18,
			"componentType":5126,
			"count":1984,
			"type":"VEC2"
		},
		{
			"bufferView":19,
			"componentType":5123,
			"count":2880,
			"type":"SCALAR"
		},
		{
			"bufferView":20,
			"componentType":5126,
			"count":1,
			"max":[
				0.08333333333333333
			],
			"min":[
				0.08333333333333333
			],
			"type":"SCALAR"
		},
		{
			"bufferView":21,
			"componentType":5126,
			"count":1,
			"type":"VEC3"
		}
	],
	"bufferViews":[
		{
			"buffer":0,
			"byteLength":3684,
			"byteOffset":0,
			"target":34962
		},
		{
			"buffer":0,
			"byteLength":3684,
			"byteOffset":3684,
			"target":34962
		},
		{
			"buffer":0,
			"byteLength":2456,
			"byteOffset":7368,
			"target":34962
		},
		{
			"buffer":0,
			"byteLength":1008,
			"byteOffset":9824,
			"target":34963
		},
		{
			"buffer":0,
			"byteLength":20976,
			"byteOffset":10832,
			"target":34962
		},
		{
			"buffer":0,
			"byteLength":20976,
			"byteOffset":31808,
			"target":34962
		},
		{
			"buffer":0,
			"byteLength":13984,
			"byteOffset":52784,
			"target":34962
		},
		{
			"buffer":0,
			"byteLength":7680,
			"byteOffset":66768,
			"target":34963
		},
		{
			"buffer":0,
			"byteLength":288,
			"byteOffset":74448,
			"target":34962
		},
		{
			"buffer":0,
			"byteLength":288,
			"byteOffset":74736,
			"target":34962
		},
		{
			"buffer":0,
			"byteLength":192,
			"byteOffset":75024,
			"target":34962
		},
		{
			"buffer":0,
			"byteLength":72,
			"byteOffset":75216,
			"target":34963
		},
		{
			"buffer":0,
			"byteLength":2304,
			"byteOffset":75288,
			"target":34962
		},
		{
			"buffer":0,
			"byteLength":2304,
			"byteOffset":77592,
			"target":34962
		},
		{
			"buffer":0,
			"byteLength":1536,
			"byteOffset":79896,
			"target":34962
		},
		{
			"buffer":0,
			"byteLength":744,
			"byteOffset":81432,
			"target":34963
		},
		{
			"buffer":0,
			"byteLength":23808,
			"byteOffset":82176,
			"target":34962
		},
		{
			"buffer":0,
			"byteLength":23808,
			"byteOffset":105984,
			"target":34962
		},
		{
			"buffer":0,
			"byteLength":15872,
			"byteOffset":129792,
			"target":34962
		},
		{
			"buffer":0,
			"byteLength":5760,
			"byteOffset":145664,
			"target":34963
		},
		{
			"buffer":0,
			"byteLength":4,
			"byteOffset":151424
		},
		{
			"buffer":0,
			"byteLength":12,
			"byteOffset":151428
		}
	],
	"buffers":[
		{
			"byteLength":151440,
			"uri":"data:application/octet-stream;base64,"
		}
	]
}
